<svg id="Layer_1" data-name="Layer 1" xmlns="http://www.w3.org/2000/svg" viewBox="0 0 16.58 14.61"><defs><style>.cls-1{fill:#343434;}</style></defs><path class="cls-1" d="M11.49,5.43l-.09,0-.15,0-.46,0h0a1,1,0,0,1-.29,0h0l-.24,0H10l-.47,0h-.2l-.5,0-.25,0-.3.17-.07.2-.13.38v.17L8,6.73l0,.21v.39l0,.21,0,.3A.45.45,0,0,1,7.9,8l0,.05-.08.35V8.6l0,.33-.08.2v0l-.14.35-.08.16,0,.34,0,.19,0,.39,0,.1a.26.26,0,0,1,0,.14l-.11.25v.16l0,.39,0,.12a.65.65,0,0,1,0,.19l-.09.25,0,.2-.11.34,0,.22-.06.34,0,.23-.06.36a2.18,2.18,0,0,1-.46.33.44.44,0,0,1-.2,0l-.42.05h-.6l-.15,0-.42,0h-.2l-.47,0s-.33-.23-.39-.37,0-.06,0-.09l.06-.31V13.3L3.57,13a.7.7,0,0,0,0-.12l.06-.09,0-.39,0-.17.06-.38,0-.18,0-.36,0-.19.07-.32,0-.22.11-.31,0-.13.09-.39V9.55l.09-.33a.56.56,0,0,1,0-.36l.07-.2.08-.23.09-.36,0-.22V7.64a.87.87,0,0,1,.11-.31l.06-.39,0-.14V6.24l.1-.38.07-.2-.18-.2-.31,0H3.37l-.22,0-.46,0H2.41L2,5.43a.91.91,0,0,1-.44-.19h0l0-.17,0-.13,0-.33.05-.21.06-.31,0-.19.06-.42c0-.08,0-.14.15-.22a.88.88,0,0,1,.4-.15h.71l.42,0h0a1,1,0,0,1,.38,0h.26l.2,0h.28l.18,0,.51,0,.11,0a.74.74,0,0,1,.26,0l.33,0H7.52l.31,0a.68.68,0,0,1,.2,0h.55l.18,0L9.2,3h.7l.16,0h.44l.17,0,.64,0,.45,0h0a.55.55,0,0,1,.4.35s0,0,0,.08l0,.17a.61.61,0,0,1-.07.28l0,.1L12,4.42l0,.23L11.84,5a.32.32,0,0,1-.17.35A1.27,1.27,0,0,1,11.49,5.43Z" transform="translate(-1.52 -3.02)"/><path class="cls-1" d="M16.52,12l.28.18c.05,0,.12.08.16.13l.07.07.2.24a.71.71,0,0,1,.17.21l.09.25,0,.17.11.35,0,0a2.44,2.44,0,0,1,0,.27v.25a.48.48,0,0,1,.06.35l0,.18,0,.07a.89.89,0,0,1-.05.13l-.17.32a.83.83,0,0,1-.14.32l-.15.18,0,0a.7.7,0,0,1-.16.19l-.2.15-.19.16-.16.16a1.84,1.84,0,0,1-.22.17h0l-.18.14a1.49,1.49,0,0,1-.24.14l-.11,0-.31.16-.57.23a.52.52,0,0,1-.2.06l-.11,0-.36.08-.5.09a.78.78,0,0,1-.22,0h-.14l-.44,0h-.24l-.42,0H12l-.28,0H11a.64.64,0,0,1-.24-.05l-.07,0-.39,0-.25,0H9.77a1.43,1.43,0,0,1-.29,0l-.08,0-.22,0-.23,0h-.2l-.35,0a1,1,0,0,1-.28,0l-.09,0H7.54a2,2,0,0,1-.26-.21.44.44,0,0,1-.09-.4l0-.17,0-.12v-.36l0-.13a.25.25,0,0,1,0-.12l.07-.27,0-.12.11-.39,0-.12v-.39l0-.23.11-.46.15-.32,0-.19v-.39l0-.15L8,12.61l0-.17,0-.34,0-.19.09-.33.07-.18.08-.33,0-.19,0-.4a.77.77,0,0,1,0-.37l0-.18v-.1l.13-.36,0-.2L8.62,9V8.88a.42.42,0,0,1,0-.13l.11-.32.06-.22,0-.22a.79.79,0,0,1,.05-.25h0l0-.24a1.31,1.31,0,0,1,0-.15L9,7.2l.07-.34a.66.66,0,0,1,.26-.36l.07-.08.18,0,.41,0,.22,0,.38,0h.46a1,1,0,0,1,.29,0h.11l.4,0,.2-.05.44,0h.17l.13,0,.36,0h.09a.76.76,0,0,1,.3,0h.2a1.22,1.22,0,0,1,.27,0l.33.07.2,0,.35,0h.22l.27.07a.65.65,0,0,1,.19,0l.12,0,.61.14.16.06.17.06a1.14,1.14,0,0,1,.25.18l0,0,.29.2a.73.73,0,0,1,.17.18l.16.2a.31.31,0,0,1,.09.14l0,.08.15.35a.94.94,0,0,1,.14.33l0,.11V9l0,.17,0,.17v.05a2.18,2.18,0,0,1,0,.25L18,9.83,18,10l-.15.32-.07.13-.09.14-.19.2a.92.92,0,0,1-.14.14l-.24.17-.15.11-.29.22-.15.12-.12.09,0,.21Zm-5.4,1.25,0,.13,0,.22a1.13,1.13,0,0,1-.09.28h0l-.09.36v.17l0,.16-.09.32,0,.21.14.21.19,0h.2l.47,0h.08a1,1,0,0,1,.33,0h.47l.46-.08.15-.09.36-.16.2-.09.3-.28.05-.13.07-.31,0-.18-.05-.16V13.5l-.2-.32-.24-.12-.38-.16H12.9l-.13,0H12.7a.49.49,0,0,1-.24,0l-.31,0-.17,0-.44,0-.16,0-.27.17Zm.81-2.28h.38l.17,0h.62l.4-.13.19-.08h0a1,1,0,0,1,.29-.08l.08,0,.31-.26.15-.12.11-.3-.06-.2,0-.19V9.48s0-.06,0-.11l0-.1L14.33,9l-.15-.08-.42-.11-.22-.05-.28,0h-.47l-.46,0h-.2l-.27.18v.23l-.08.39v.1a.36.36,0,0,1,0,.14l-.11.31-.09.17-.05.36,0,.17.24.22Z" transform="translate(-1.52 -3.02)"/></svg>